PathFileType	4	(X/Y/Z)	52_1_tpose_p0_0-176_filt_butterworth.trc
DataRate	CameraRate	NumFrames	NumMarkers	Units	OrigDataRate	OrigDataStartFrame	OrigNumFrames
59.0	59.0	4	27	m	59.0	0	176
Frame#	Time	RHip			RKnee			RAnkle			RBigToe			RSmallToe			RHeel			LHip			LKnee			LAnkle			LBigToe			LSmallToe			LHeel			Neck			Head			Nose			RShoulder			RElbow			RWrist			RThumb			RIndex			RPinky			LShoulder			LElbow			LWrist			LThumb			LIndex			LPinky			
		X1	Y1	Z1	X2	Y2	Z2	X3	Y3	Z3	X4	Y4	Z4	X5	Y5	Z5	X6	Y6	Z6	X7	Y7	Z7	X8	Y8	Z8	X9	Y9	Z9	X10	Y10	Z10	X11	Y11	Z11	X12	Y12	Z12	X13	Y13	Z13	X14	Y14	Z14	X15	Y15	Z15	X16	Y16	Z16	X17	Y17	Z17	X18	Y18	Z18	X19	Y19	Z19	X20	Y20	Z20	X21	Y21	Z21	X22	Y22	Z22	X23	Y23	Z23	X24	Y24	Z24	X25	Y25	Z25	X26	Y26	Z26	X27	Y27	Z27	
0	0.0	-0.021968315281609724	0.739086916270459	0.703791438684314	-0.003598324350524776	0.311349826650288	0.7119113309796576	0.017679415745185792	-0.10913333127656416	0.8152575218840975	0.004573981076268796	-0.11117912930210613	0.6091629671871218	0.061537727349983536	-0.11848915356835199	0.6308858363484029	-0.000931742225300291	-0.17373198326723951	0.8773943081830117	-0.1928074834970742	0.7247354030892614	0.7310075267778497	-0.2015490808865458	0.31948995816628645	0.740396456436855	-0.17929571755532742	-0.094138380482318	0.7728168031076404	-0.15590400927985532	-0.08292117855666162	0.5631255064135547	-0.2113051349663005	-0.11343642173913109	0.6262270448583249	-0.14764634011420671	-0.18156730398651016	0.8405446102517794	-0.11493209064394033	1.2204977274707007	0.738512430069795	-0.11239640240004523	1.450770399961948	0.6616284630900102	-0.11164465123216744	1.3311387146285993	0.6063883358252624	0.028906058600947748	1.1657350731117	0.7056954229612686	0.2743577761818993	1.158011090955091	0.7809733112538322	0.4982292664531444	1.2309807243544786	0.7794178961578122	0.6111182170339179	1.267269024936621	0.8808698703529341	0.6293915639896386	1.2775296006882333	0.8420482503776379	0.6171549551576521	1.2367598422426753	0.8653131163692647	-0.2616162286843067	1.1600231577285354	0.7291035425008952	-0.48656498493849754	1.1680227263338683	0.6852591457955939	-0.7192225700384811	1.168423161348051	0.7090820655105761	-0.8101163014102248	1.1719625393153712	0.6926624213121779	-0.8249428878438716	1.1855476431601486	0.7066523561769953	-0.8132708362400043	1.195401226908934	0.6889910307575233	
1	0.0169491525423728	-0.02228251593831615	0.7393224343267275	0.7030712080626698	-0.004031616224223239	0.3133503371445593	0.7116718213558149	0.01773100954187941	-0.11089518447022348	0.8183743775350687	0.005072641027584458	-0.11234487942242147	0.6108326865103029	0.06339318767150022	-0.12296415951265102	0.6379848616180231	-0.000912527626434878	-0.17398858403577655	0.8773517217963068	-0.19447613684015144	0.7257390945346274	0.7276555087964434	-0.20159916525005417	0.31991778968863194	0.740235220893466	-0.1792985444915863	-0.09414835417057363	0.7728401047100715	-0.15554725032616043	-0.08472728394750055	0.5656046699442162	-0.21201747274180088	-0.11708874720132435	0.626292398104555	-0.14777274779268185	-0.1814603495350425	0.8414189076938449	-0.1153646294251402	1.220461477045678	0.7385637494319607	-0.11236777888289845	1.4507663053647584	0.6616779013803347	-0.11209586134961202	1.3309820482735246	0.6077877099596513	0.029629337878057382	1.1646183118431364	0.7068426784499755	0.27731242111370585	1.1600488724996314	0.7747788145342271	0.4982777582227354	1.2347496509030589	0.7756807706944249	0.6091024612121885	1.2675025520305103	0.8392388511455801	0.6259732249310743	1.2776907501284505	0.8442736724848567	0.6152223708869831	1.2375427116348006	0.8592709246070861	-0.26051717708043826	1.16092196502682	0.7354131996630708	-0.48422353108118654	1.1677790179721046	0.6888471486257843	-0.7193302843530309	1.166627972668231	0.7069358125766283	-0.8136244602281542	1.1662599625943868	0.694878680404305	-0.8262374951273257	1.180335930917779	0.7057515598754871	-0.8140641239095032	1.1834910542003665	0.6884712769985317	
2	0.0338983050847457	-0.02252654075163979	0.7395764858812632	0.7025448959379486	-0.004387162167700243	0.3150330595465376	0.7115118709603303	0.017788820802956372	-0.11237164156684426	0.8209823478333467	0.005257341183455284	-0.1128150469336973	0.6114016719547096	0.06457889798960548	-0.1257018757701383	0.6424034362045463	-0.0009029466259112202	-0.17418919085050913	0.8773185540822876	-0.19592367635091074	0.7266363558860215	0.7247550070713178	-0.20163012184164522	0.32023313807183357	0.7401160226256274	-0.17929900438584362	-0.09415318487513558	0.7728508663693642	-0.15542602665124905	-0.08530947177674653	0.5663227975702834	-0.21236331352507012	-0.11877237567460772	0.6262852839975479	-0.14791743046686878	-0.1813024887644147	0.8418818606759302	-0.11607037897012346	1.220418492974041	0.7385584269595244	-0.11236164433775936	1.45082268456163	0.6617279678439577	-0.11280814624293833	1.3307290150081745	0.6098301797563943	0.02972156835766243	1.164346702320761	0.706713981031649	0.27948083651772115	1.1618078594057297	0.770467410175473	0.49898299854686096	1.2367683685808781	0.7724799538584299	0.6085953368439174	1.2668924187930033	0.810727535468986	0.6244420621485078	1.276525256247511	0.8450526936882832	0.6126997173408062	1.2371655265640684	0.8496937415776252	-0.2598165120061555	1.161488011590479	0.7394537997656869	-0.4835985755728921	1.1670162803492496	0.694573713218275	-0.7190318685856841	1.1648916190745984	0.7059633671051257	-0.8147086777811043	1.161827910575402	0.6945823808677918	-0.8261274325937662	1.1755614641696877	0.705291113357652	-0.8149518137180379	1.174644205591453	0.6896025638760722	
3	0.0508474576271186	-0.02270919668299179	0.7398471580950878	0.7021847854810199	-0.004671039703295438	0.31642123846631065	0.7114235612695322	0.0178485326204451	-0.11358424948535682	0.8231196190863816	0.005204806322152221	-0.11275619493368633	0.6111423841639883	0.06521796164167848	-0.12700965824146104	0.6446833381282897	-0.0009019999033897081	-0.17433736452088366	0.8772947898728091	-0.19716354251227872	0.7274334138959713	0.7222755361888945	-0.20164406698164944	0.3204467976091947	0.7400348963467644	-0.179297309845383	-0.09415352606580404	0.7728504162738482	-0.15547592899293927	-0.08493400577036525	0.56571878077603	-0.21242947090043351	-0.11890074957566538	0.626219944730482	-0.1480778323511479	-0.181097588584556	0.8419734666990064	-0.11694836095839461	1.2203722736047857	0.7385133275190066	-0.11237244385031409	1.450922658235759	0.6617766911872377	-0.11368395863635278	1.3304158122049297	0.6122605304607815	0.029325643376700572	1.1647124318170956	0.7058120572967608	0.28093446201533584	1.1633245448563416	0.7677271433124245	0.500143135274034	1.2372945285612098	0.7699367490471702	0.6092911384320769	1.2654384492214092	0.7931929101728792	0.6243817959433949	1.2741628893544679	0.844716314460586	0.609784684464195	1.2358027435032417	0.8377045445299177	-0.2594392895040662	1.161784993918354	0.741656754556564	-0.4843681012826069	1.1658434497790027	0.7019134607426643	-0.7186393650008416	1.1631814541134868	0.7061587706414594	-0.8141064247301988	1.15844454034747	0.6927388429566228	-0.8251770060730678	1.1711762699663821	0.7054050947622175	-0.815930782557555	1.1683411081575692	0.6920646063430573	
